<svg xmlns="http://www.w3.org/2000/svg" viewBox="0 0 1400 764" font-family="-apple-system, Segoe UI, Helvetica, sans-serif">
  <defs>
    <filter id="shadow" x="-10%" y="-10%" width="120%" height="120%">
      <feDropShadow dx="0" dy="2" stdDeviation="2.4" flood-color="#000" flood-opacity="0.10"/>
    </filter>
  </defs>
  <rect x="0" y="0" width="100%" height="100%" fill="#F4F6F9"/>
  <text x="700.0" y="32" text-anchor="middle" font-size="18" font-weight="700" fill="#1F2530">Concord Taco Recognition — Star Schema</text>
  <text x="700.0" y="50" text-anchor="middle" font-size="12" fill="#5A6270">Two facts (kudos posts + taco reactions), three conformed dimensions</text>

  <!-- Legend -->
  <g transform="translate(1180, 600)">
    <rect width="200" height="78" rx="6" fill="#FFFFFF" stroke="#BCC3CC" stroke-width="1"/>
    <text x="12" y="20" font-size="11" font-weight="700" fill="#1F2530">Legend</text>
    <rect x="12" y="28" width="14" height="10" fill="#4A6FA5"/>
    <text x="32" y="37" font-size="11" fill="#3C4250">Dimension</text>
    <rect x="12" y="44" width="14" height="10" fill="#C85A3A"/>
    <text x="32" y="53" font-size="11" fill="#3C4250">Fact</text>
    <rect x="100" y="28" width="20" height="11" rx="2" fill="#B8860B"/>
    <text x="110" y="37" text-anchor="middle" font-size="8" font-weight="700" fill="white">PK</text>
    <text x="126" y="37" font-size="11" fill="#3C4250">Primary key</text>
    <rect x="100" y="44" width="20" height="11" rx="2" fill="#4A6FA5"/>
    <text x="110" y="53" text-anchor="middle" font-size="8" font-weight="700" fill="white">FK</text>
    <text x="126" y="53" font-size="11" fill="#3C4250">Foreign key</text>
  </g>

  <path d="M150.0,164.0 C150.0,244.0 394.0,240.0 394.0,320.0" stroke="#4F5663" stroke-width="1.6" fill="none" stroke-linecap="round"/>
<line x1="144.0" y1="176" x2="156.0" y2="176" stroke="#4F5663" stroke-width="1.6"/>
<line x1="394.0" y1="320" x2="387.0" y2="334" stroke="#4F5663" stroke-width="1.6"/>
<line x1="394.0" y1="320" x2="401.0" y2="334" stroke="#4F5663" stroke-width="1.6"/>
<line x1="394.0" y1="320" x2="394.0"     y2="334" stroke="#4F5663" stroke-width="1.6"/>
<rect x="212.0" y="233.0" width="120.0" height="16" rx="3" fill="#FFFFFF" stroke="#D8DDE3" stroke-width="0.8"/>
<text x="272.0" y="245.0" text-anchor="middle" fill="#3C4250" font-size="10.5" font-family="-apple-system, Segoe UI, Helvetica, sans-serif" font-style="italic">giver, receiver</text>
<path d="M260.0,112.0 C340.0,112.0 844.0,240.0 844.0,320.0" stroke="#4F5663" stroke-width="1.6" fill="none" stroke-linecap="round"/>
<line x1="272" y1="106.0" x2="272" y2="118.0" stroke="#4F5663" stroke-width="1.6"/>
<line x1="844.0" y1="320" x2="837.0" y2="334" stroke="#4F5663" stroke-width="1.6"/>
<line x1="844.0" y1="320" x2="851.0" y2="334" stroke="#4F5663" stroke-width="1.6"/>
<line x1="844.0" y1="320" x2="844.0"     y2="334" stroke="#4F5663" stroke-width="1.6"/>
<rect x="484.8" y="207.0" width="134.4" height="16" rx="3" fill="#FFFFFF" stroke="#D8DDE3" stroke-width="0.8"/>
<text x="552.0" y="219.0" text-anchor="middle" fill="#3C4250" font-size="10.5" font-family="-apple-system, Segoe UI, Helvetica, sans-serif" font-style="italic">reactor, receiver</text>
<path d="M1250.0,264.0 C1250.0,344.0 556.0,240.0 556.0,320.0" stroke="#4F5663" stroke-width="1.6" fill="none" stroke-linecap="round"/>
<line x1="1244.0" y1="276" x2="1256.0" y2="276" stroke="#4F5663" stroke-width="1.6"/>
<line x1="556.0" y1="320" x2="549.0" y2="334" stroke="#4F5663" stroke-width="1.6"/>
<line x1="556.0" y1="320" x2="563.0" y2="334" stroke="#4F5663" stroke-width="1.6"/>
<line x1="556.0" y1="320" x2="556.0"     y2="334" stroke="#4F5663" stroke-width="1.6"/>
<rect x="843.0" y="283.0" width="120.0" height="16" rx="3" fill="#FFFFFF" stroke="#D8DDE3" stroke-width="0.8"/>
<text x="903.0" y="295.0" text-anchor="middle" fill="#3C4250" font-size="10.5" font-family="-apple-system, Segoe UI, Helvetica, sans-serif" font-style="italic">posted_date_key</text>
<path d="M1250.0,264.0 C1250.0,344.0 1006.0,240.0 1006.0,320.0" stroke="#4F5663" stroke-width="1.6" fill="none" stroke-linecap="round"/>
<line x1="1244.0" y1="276" x2="1256.0" y2="276" stroke="#4F5663" stroke-width="1.6"/>
<line x1="1006.0" y1="320" x2="999.0" y2="334" stroke="#4F5663" stroke-width="1.6"/>
<line x1="1006.0" y1="320" x2="1013.0" y2="334" stroke="#4F5663" stroke-width="1.6"/>
<line x1="1006.0" y1="320" x2="1006.0"     y2="334" stroke="#4F5663" stroke-width="1.6"/>
<rect x="1064.4" y="283.0" width="127.2" height="16" rx="3" fill="#FFFFFF" stroke="#D8DDE3" stroke-width="0.8"/>
<text x="1128.0" y="295.0" text-anchor="middle" fill="#3C4250" font-size="10.5" font-family="-apple-system, Segoe UI, Helvetica, sans-serif" font-style="italic">reacted_date_key</text>
<path d="M634.0,640.0 C634.0,560.0 475.0,624.0 475.0,544.0" stroke="#4F5663" stroke-width="1.6" fill="none" stroke-linecap="round"/>
<line x1="628.0" y1="628" x2="640.0" y2="628" stroke="#4F5663" stroke-width="1.6"/>
<line x1="475.0" y1="544" x2="468.0" y2="530" stroke="#4F5663" stroke-width="1.6"/>
<line x1="475.0" y1="544" x2="482.0" y2="530" stroke="#4F5663" stroke-width="1.6"/>
<line x1="475.0" y1="544" x2="475.0"     y2="530" stroke="#4F5663" stroke-width="1.6"/>
<rect x="508.9" y="583.0" width="91.2" height="16" rx="3" fill="#FFFFFF" stroke="#D8DDE3" stroke-width="0.8"/>
<text x="554.5" y="595.0" text-anchor="middle" fill="#3C4250" font-size="10.5" font-family="-apple-system, Segoe UI, Helvetica, sans-serif" font-style="italic">channel_key</text>
<path d="M766.0,640.0 C766.0,560.0 925.0,644.0 925.0,564.0" stroke="#4F5663" stroke-width="1.6" fill="none" stroke-linecap="round"/>
<line x1="760.0" y1="628" x2="772.0" y2="628" stroke="#4F5663" stroke-width="1.6"/>
<line x1="925.0" y1="564" x2="918.0" y2="550" stroke="#4F5663" stroke-width="1.6"/>
<line x1="925.0" y1="564" x2="932.0" y2="550" stroke="#4F5663" stroke-width="1.6"/>
<line x1="925.0" y1="564" x2="925.0"     y2="550" stroke="#4F5663" stroke-width="1.6"/>
<rect x="799.9" y="593.0" width="91.2" height="16" rx="3" fill="#FFFFFF" stroke="#D8DDE3" stroke-width="0.8"/>
<text x="845.5" y="605.0" text-anchor="middle" fill="#3C4250" font-size="10.5" font-family="-apple-system, Segoe UI, Helvetica, sans-serif" font-style="italic">channel_key</text>
<path d="M610.0,432.0 C690.0,432.0 710.0,442.0 790.0,442.0" stroke="#4F5663" stroke-width="1.6" fill="none" stroke-linecap="round"/>
<line x1="622" y1="426.0" x2="622" y2="438.0" stroke="#4F5663" stroke-width="1.6"/>
<line x1="790" y1="442.0" x2="804" y2="435.0" stroke="#4F5663" stroke-width="1.6"/>
<line x1="790" y1="442.0" x2="804" y2="449.0" stroke="#4F5663" stroke-width="1.6"/>
<line x1="790" y1="442.0" x2="804" y2="442.0"     stroke="#4F5663" stroke-width="1.6"/>
<rect x="607.6" y="428.0" width="184.8" height="16" rx="3" fill="#FFFFFF" stroke="#D8DDE3" stroke-width="0.8"/>
<text x="700.0" y="440.0" text-anchor="middle" fill="#3C4250" font-size="10.5" font-family="-apple-system, Segoe UI, Helvetica, sans-serif" font-style="italic">message_key  (parent of)</text>

  <g transform="translate(40,60)">
  <rect x="0" y="0" width="220" height="104" rx="6" ry="6" fill="#ffffff" stroke="#BCC3CC" stroke-width="1.2" filter="url(#shadow)"/>
  <path d="M0,6 Q0,0 6,0 L214,0 Q220,0 220,6 L220,28 L0,28 Z" fill="#4A6FA5"/>
  <text x="110.0" y="19" text-anchor="middle" fill="white" font-size="13" font-weight="700" font-family="-apple-system, Segoe UI, Helvetica, sans-serif">dim_person</text>
  <rect x="10" y="36" width="22" height="13" rx="2" fill="#B8860B"/>
  <text x="21" y="46" text-anchor="middle" fill="white" font-size="9" font-weight="700" font-family="-apple-system, Segoe UI, Helvetica, sans-serif">PK</text>
  <text x="38" y="46" fill="#23272E" font-size="11.5" font-weight="600" font-family="ui-monospace, Menlo, Consolas, monospace">person_key</text>
  <rect x="1" y="54" width="218" height="20" fill="#F6F8FB"/>
  <text x="14" y="66" fill="#23272E" font-size="11.5" font-weight="400" font-family="ui-monospace, Menlo, Consolas, monospace">person_name</text>
  <text x="14" y="86" fill="#23272E" font-size="11.5" font-weight="400" font-family="ui-monospace, Menlo, Consolas, monospace">person_email</text>
</g>
<g transform="translate(590,640)">
  <rect x="0" y="0" width="220" height="84" rx="6" ry="6" fill="#ffffff" stroke="#BCC3CC" stroke-width="1.2" filter="url(#shadow)"/>
  <path d="M0,6 Q0,0 6,0 L214,0 Q220,0 220,6 L220,28 L0,28 Z" fill="#4A6FA5"/>
  <text x="110.0" y="19" text-anchor="middle" fill="white" font-size="13" font-weight="700" font-family="-apple-system, Segoe UI, Helvetica, sans-serif">dim_channel</text>
  <rect x="10" y="36" width="22" height="13" rx="2" fill="#B8860B"/>
  <text x="21" y="46" text-anchor="middle" fill="white" font-size="9" font-weight="700" font-family="-apple-system, Segoe UI, Helvetica, sans-serif">PK</text>
  <text x="38" y="46" fill="#23272E" font-size="11.5" font-weight="600" font-family="ui-monospace, Menlo, Consolas, monospace">channel_key</text>
  <rect x="1" y="54" width="218" height="20" fill="#F6F8FB"/>
  <text x="14" y="66" fill="#23272E" font-size="11.5" font-weight="400" font-family="ui-monospace, Menlo, Consolas, monospace">channel_name</text>
</g>
<g transform="translate(1140,60)">
  <rect x="0" y="0" width="220" height="204" rx="6" ry="6" fill="#ffffff" stroke="#BCC3CC" stroke-width="1.2" filter="url(#shadow)"/>
  <path d="M0,6 Q0,0 6,0 L214,0 Q220,0 220,6 L220,28 L0,28 Z" fill="#4A6FA5"/>
  <text x="110.0" y="19" text-anchor="middle" fill="white" font-size="13" font-weight="700" font-family="-apple-system, Segoe UI, Helvetica, sans-serif">dim_date</text>
  <rect x="10" y="36" width="22" height="13" rx="2" fill="#B8860B"/>
  <text x="21" y="46" text-anchor="middle" fill="white" font-size="9" font-weight="700" font-family="-apple-system, Segoe UI, Helvetica, sans-serif">PK</text>
  <text x="38" y="46" fill="#23272E" font-size="11.5" font-weight="600" font-family="ui-monospace, Menlo, Consolas, monospace">date_key</text>
  <rect x="1" y="54" width="218" height="20" fill="#F6F8FB"/>
  <text x="14" y="66" fill="#23272E" font-size="11.5" font-weight="400" font-family="ui-monospace, Menlo, Consolas, monospace">year</text>
  <text x="14" y="86" fill="#23272E" font-size="11.5" font-weight="400" font-family="ui-monospace, Menlo, Consolas, monospace">quarter</text>
  <rect x="1" y="94" width="218" height="20" fill="#F6F8FB"/>
  <text x="14" y="106" fill="#23272E" font-size="11.5" font-weight="400" font-family="ui-monospace, Menlo, Consolas, monospace">month</text>
  <text x="14" y="126" fill="#23272E" font-size="11.5" font-weight="400" font-family="ui-monospace, Menlo, Consolas, monospace">month_name</text>
  <rect x="1" y="134" width="218" height="20" fill="#F6F8FB"/>
  <text x="14" y="146" fill="#23272E" font-size="11.5" font-weight="400" font-family="ui-monospace, Menlo, Consolas, monospace">day</text>
  <text x="14" y="166" fill="#23272E" font-size="11.5" font-weight="400" font-family="ui-monospace, Menlo, Consolas, monospace">day_of_week</text>
  <rect x="1" y="174" width="218" height="20" fill="#F6F8FB"/>
  <text x="14" y="186" fill="#23272E" font-size="11.5" font-weight="400" font-family="ui-monospace, Menlo, Consolas, monospace">iso_week</text>
</g>
<g transform="translate(340,320)">
  <rect x="0" y="0" width="270" height="224" rx="6" ry="6" fill="#ffffff" stroke="#BCC3CC" stroke-width="1.2" filter="url(#shadow)"/>
  <path d="M0,6 Q0,0 6,0 L264,0 Q270,0 270,6 L270,28 L0,28 Z" fill="#C85A3A"/>
  <text x="135.0" y="19" text-anchor="middle" fill="white" font-size="13" font-weight="700" font-family="-apple-system, Segoe UI, Helvetica, sans-serif">fact_kudos_message</text>
  <rect x="10" y="36" width="22" height="13" rx="2" fill="#B8860B"/>
  <text x="21" y="46" text-anchor="middle" fill="white" font-size="9" font-weight="700" font-family="-apple-system, Segoe UI, Helvetica, sans-serif">PK</text>
  <text x="38" y="46" fill="#23272E" font-size="11.5" font-weight="600" font-family="ui-monospace, Menlo, Consolas, monospace">message_key</text>
  <rect x="1" y="54" width="268" height="20" fill="#F6F8FB"/>
  <rect x="10" y="56" width="22" height="13" rx="2" fill="#4A6FA5"/>
  <text x="21" y="66" text-anchor="middle" fill="white" font-size="9" font-weight="700" font-family="-apple-system, Segoe UI, Helvetica, sans-serif">FK</text>
  <text x="38" y="66" fill="#23272E" font-size="11.5" font-weight="600" font-family="ui-monospace, Menlo, Consolas, monospace">giver_person_key</text>
  <rect x="10" y="76" width="22" height="13" rx="2" fill="#4A6FA5"/>
  <text x="21" y="86" text-anchor="middle" fill="white" font-size="9" font-weight="700" font-family="-apple-system, Segoe UI, Helvetica, sans-serif">FK</text>
  <text x="38" y="86" fill="#23272E" font-size="11.5" font-weight="600" font-family="ui-monospace, Menlo, Consolas, monospace">receiver_person_key</text>
  <rect x="1" y="94" width="268" height="20" fill="#F6F8FB"/>
  <rect x="10" y="96" width="22" height="13" rx="2" fill="#4A6FA5"/>
  <text x="21" y="106" text-anchor="middle" fill="white" font-size="9" font-weight="700" font-family="-apple-system, Segoe UI, Helvetica, sans-serif">FK</text>
  <text x="38" y="106" fill="#23272E" font-size="11.5" font-weight="600" font-family="ui-monospace, Menlo, Consolas, monospace">channel_key</text>
  <rect x="10" y="116" width="22" height="13" rx="2" fill="#4A6FA5"/>
  <text x="21" y="126" text-anchor="middle" fill="white" font-size="9" font-weight="700" font-family="-apple-system, Segoe UI, Helvetica, sans-serif">FK</text>
  <text x="38" y="126" fill="#23272E" font-size="11.5" font-weight="600" font-family="ui-monospace, Menlo, Consolas, monospace">posted_date_key</text>
  <rect x="1" y="134" width="268" height="20" fill="#F6F8FB"/>
  <text x="14" y="146" fill="#23272E" font-size="11.5" font-weight="400" font-family="ui-monospace, Menlo, Consolas, monospace">posted_at</text>
  <text x="14" y="166" fill="#23272E" font-size="11.5" font-weight="400" font-family="ui-monospace, Menlo, Consolas, monospace">tacos_granted</text>
  <rect x="1" y="174" width="268" height="20" fill="#F6F8FB"/>
  <text x="14" y="186" fill="#23272E" font-size="11.5" font-weight="400" font-family="ui-monospace, Menlo, Consolas, monospace">message_text</text>
  <text x="14" y="206" fill="#23272E" font-size="11.5" font-weight="400" font-family="ui-monospace, Menlo, Consolas, monospace">source_flag</text>
</g>
<g transform="translate(790,320)">
  <rect x="0" y="0" width="270" height="244" rx="6" ry="6" fill="#ffffff" stroke="#BCC3CC" stroke-width="1.2" filter="url(#shadow)"/>
  <path d="M0,6 Q0,0 6,0 L264,0 Q270,0 270,6 L270,28 L0,28 Z" fill="#C85A3A"/>
  <text x="135.0" y="19" text-anchor="middle" fill="white" font-size="13" font-weight="700" font-family="-apple-system, Segoe UI, Helvetica, sans-serif">fact_kudos_reaction</text>
  <rect x="10" y="36" width="22" height="13" rx="2" fill="#B8860B"/>
  <text x="21" y="46" text-anchor="middle" fill="white" font-size="9" font-weight="700" font-family="-apple-system, Segoe UI, Helvetica, sans-serif">PK</text>
  <text x="38" y="46" fill="#23272E" font-size="11.5" font-weight="600" font-family="ui-monospace, Menlo, Consolas, monospace">reaction_key</text>
  <rect x="1" y="54" width="268" height="20" fill="#F6F8FB"/>
  <rect x="10" y="56" width="22" height="13" rx="2" fill="#4A6FA5"/>
  <text x="21" y="66" text-anchor="middle" fill="white" font-size="9" font-weight="700" font-family="-apple-system, Segoe UI, Helvetica, sans-serif">FK</text>
  <text x="38" y="66" fill="#23272E" font-size="11.5" font-weight="600" font-family="ui-monospace, Menlo, Consolas, monospace">message_key</text>
  <rect x="10" y="76" width="22" height="13" rx="2" fill="#4A6FA5"/>
  <text x="21" y="86" text-anchor="middle" fill="white" font-size="9" font-weight="700" font-family="-apple-system, Segoe UI, Helvetica, sans-serif">FK</text>
  <text x="38" y="86" fill="#23272E" font-size="11.5" font-weight="600" font-family="ui-monospace, Menlo, Consolas, monospace">reactor_person_key</text>
  <rect x="1" y="94" width="268" height="20" fill="#F6F8FB"/>
  <rect x="10" y="96" width="22" height="13" rx="2" fill="#4A6FA5"/>
  <text x="21" y="106" text-anchor="middle" fill="white" font-size="9" font-weight="700" font-family="-apple-system, Segoe UI, Helvetica, sans-serif">FK</text>
  <text x="38" y="106" fill="#23272E" font-size="11.5" font-weight="600" font-family="ui-monospace, Menlo, Consolas, monospace">receiver_person_key</text>
  <rect x="10" y="116" width="22" height="13" rx="2" fill="#4A6FA5"/>
  <text x="21" y="126" text-anchor="middle" fill="white" font-size="9" font-weight="700" font-family="-apple-system, Segoe UI, Helvetica, sans-serif">FK</text>
  <text x="38" y="126" fill="#23272E" font-size="11.5" font-weight="600" font-family="ui-monospace, Menlo, Consolas, monospace">channel_key</text>
  <rect x="1" y="134" width="268" height="20" fill="#F6F8FB"/>
  <rect x="10" y="136" width="22" height="13" rx="2" fill="#4A6FA5"/>
  <text x="21" y="146" text-anchor="middle" fill="white" font-size="9" font-weight="700" font-family="-apple-system, Segoe UI, Helvetica, sans-serif">FK</text>
  <text x="38" y="146" fill="#23272E" font-size="11.5" font-weight="600" font-family="ui-monospace, Menlo, Consolas, monospace">reacted_date_key</text>
  <text x="14" y="166" fill="#23272E" font-size="11.5" font-weight="400" font-family="ui-monospace, Menlo, Consolas, monospace">reacted_at</text>
  <rect x="1" y="174" width="268" height="20" fill="#F6F8FB"/>
  <text x="14" y="186" fill="#23272E" font-size="11.5" font-weight="400" font-family="ui-monospace, Menlo, Consolas, monospace">tacos</text>
  <text x="14" y="206" fill="#23272E" font-size="11.5" font-weight="400" font-family="ui-monospace, Menlo, Consolas, monospace">parent_status</text>
  <rect x="1" y="214" width="268" height="20" fill="#F6F8FB"/>
  <text x="14" y="226" fill="#23272E" font-size="11.5" font-weight="400" font-family="ui-monospace, Menlo, Consolas, monospace">dq_flag</text>
</g>
</svg>
